<svg width="653" height="184" viewBox="0 0 653 184" fill="none" xmlns="http://www.w3.org/2000/svg">
<path d="M22.4325 93.1307C22.2962 91.7557 21.7109 90.6875 20.6768 89.9261C19.6428 89.1648 18.2393 88.7841 16.4666 88.7841C15.2621 88.7841 14.245 88.9545 13.4155 89.2955C12.5859 89.625 11.9496 90.0852 11.5064 90.6761C11.0746 91.267 10.8587 91.9375 10.8587 92.6875C10.8359 93.3125 10.9666 93.858 11.2507 94.3239C11.5462 94.7898 11.9496 95.1932 12.4609 95.5341C12.9723 95.8636 13.5632 96.1534 14.2337 96.4034C14.9041 96.642 15.62 96.8466 16.3814 97.017L19.5178 97.767C21.0405 98.108 22.4382 98.5625 23.7109 99.1307C24.9837 99.6989 26.0859 100.398 27.0178 101.227C27.9496 102.057 28.6712 103.034 29.1825 104.159C29.7053 105.284 29.9723 106.574 29.9837 108.028C29.9723 110.165 29.4268 112.017 28.3473 113.585C27.2791 115.142 25.7337 116.352 23.7109 117.216C21.6996 118.068 19.2734 118.494 16.4325 118.494C13.6143 118.494 11.1598 118.062 9.06889 117.199C6.98935 116.335 5.36435 115.057 4.19389 113.364C3.0348 111.659 2.42685 109.551 2.37003 107.04H9.51207C9.59162 108.21 9.92685 109.187 10.5178 109.972C11.12 110.744 11.9212 111.33 12.9212 111.727C13.9325 112.114 15.0746 112.307 16.3473 112.307C17.5973 112.307 18.6825 112.125 19.603 111.761C20.5348 111.398 21.2564 110.892 21.7678 110.244C22.2791 109.597 22.5348 108.852 22.5348 108.011C22.5348 107.227 22.3018 106.568 21.8359 106.034C21.3814 105.5 20.7109 105.045 19.8246 104.67C18.9496 104.295 17.8757 103.955 16.603 103.648L12.8018 102.693C9.85866 101.977 7.5348 100.858 5.83026 99.3352C4.12571 97.8125 3.27912 95.7614 3.29048 93.1818C3.27912 91.0682 3.84162 89.2216 4.97798 87.642C6.12571 86.0625 7.69957 84.8295 9.69957 83.9432C11.6996 83.0568 13.9723 82.6136 16.5178 82.6136C19.1087 82.6136 21.37 83.0568 23.3018 83.9432C25.245 84.8295 26.7564 86.0625 27.8359 87.642C28.9155 89.2216 29.4723 91.0511 29.5064 93.1307H22.4325ZM34.8118 118V91.8182H41.7322V96.4375H42.0391C42.5845 94.9034 43.4936 93.6932 44.7663 92.8068C46.0391 91.9205 47.5618 91.4773 49.3345 91.4773C51.13 91.4773 52.6584 91.9261 53.9197 92.8239C55.1811 93.7102 56.022 94.9148 56.4425 96.4375H56.7152C57.2493 94.9375 58.2152 93.7386 59.6129 92.8409C61.022 91.9318 62.6868 91.4773 64.6072 91.4773C67.0504 91.4773 69.0334 92.2557 70.5561 93.8125C72.0902 95.358 72.8572 97.5511 72.8572 100.392V118H65.6129V101.824C65.6129 100.369 65.2266 99.2784 64.4538 98.5511C63.6811 97.8239 62.7152 97.4602 61.5561 97.4602C60.2379 97.4602 59.2095 97.8807 58.4709 98.7216C57.7322 99.5511 57.3629 100.648 57.3629 102.011V118H50.3232V101.67C50.3232 100.386 49.9538 99.3636 49.2152 98.6023C48.4879 97.8409 47.5277 97.4602 46.3345 97.4602C45.5277 97.4602 44.8004 97.6648 44.1527 98.0739C43.5163 98.4716 43.0107 99.0341 42.6357 99.7614C42.2607 100.477 42.0732 101.318 42.0732 102.284V118H34.8118ZM86.0589 118.494C84.3885 118.494 82.8999 118.205 81.593 117.625C80.2862 117.034 79.2521 116.165 78.4908 115.017C77.7408 113.858 77.3658 112.415 77.3658 110.688C77.3658 109.233 77.6328 108.011 78.1669 107.023C78.701 106.034 79.4283 105.239 80.3487 104.636C81.2692 104.034 82.3146 103.58 83.4851 103.273C84.6669 102.966 85.9055 102.75 87.201 102.625C88.7237 102.466 89.951 102.318 90.8828 102.182C91.8146 102.034 92.4908 101.818 92.9112 101.534C93.3317 101.25 93.5419 100.83 93.5419 100.273V100.17C93.5419 99.0909 93.201 98.2557 92.5192 97.6648C91.8487 97.0739 90.8942 96.7784 89.6555 96.7784C88.3487 96.7784 87.3089 97.0682 86.5362 97.6477C85.7635 98.2159 85.2521 98.9318 85.0021 99.7955L78.2862 99.25C78.6271 97.6591 79.2976 96.2841 80.2976 95.125C81.2976 93.9545 82.5874 93.0568 84.1669 92.4318C85.7578 91.7955 87.5987 91.4773 89.6896 91.4773C91.1442 91.4773 92.5362 91.6477 93.8658 91.9886C95.2067 92.3295 96.3942 92.858 97.4283 93.5739C98.4737 94.2898 99.2976 95.2102 99.8999 96.3352C100.502 97.4489 100.803 98.7841 100.803 100.341V118H93.9169V114.369H93.7124C93.2919 115.188 92.7294 115.909 92.0249 116.534C91.3203 117.148 90.4737 117.631 89.4851 117.983C88.4964 118.324 87.3544 118.494 86.0589 118.494ZM88.1385 113.483C89.2067 113.483 90.1499 113.273 90.968 112.852C91.7862 112.42 92.4283 111.841 92.8942 111.114C93.3601 110.386 93.593 109.562 93.593 108.642V105.864C93.3658 106.011 93.0533 106.148 92.6555 106.273C92.2692 106.386 91.8317 106.494 91.343 106.597C90.8544 106.687 90.3658 106.773 89.8771 106.852C89.3885 106.92 88.9453 106.983 88.5476 107.04C87.6953 107.165 86.951 107.364 86.3146 107.636C85.6783 107.909 85.1839 108.278 84.8317 108.744C84.4794 109.199 84.3033 109.767 84.3033 110.449C84.3033 111.438 84.6612 112.193 85.3771 112.716C86.1044 113.227 87.0249 113.483 88.1385 113.483ZM106.437 118V91.8182H113.477V96.3864H113.749C114.227 94.7614 115.028 93.5341 116.153 92.7045C117.278 91.8636 118.573 91.4432 120.039 91.4432C120.403 91.4432 120.795 91.4659 121.215 91.5114C121.636 91.5568 122.005 91.6193 122.323 91.6989V98.142C121.982 98.0398 121.511 97.9489 120.908 97.8693C120.306 97.7898 119.755 97.75 119.255 97.75C118.187 97.75 117.232 97.983 116.391 98.4489C115.562 98.9034 114.903 99.5398 114.414 100.358C113.937 101.176 113.698 102.119 113.698 103.188V118H106.437ZM141.316 91.8182V97.2727H125.549V91.8182H141.316ZM129.129 85.5455H136.39V109.955C136.39 110.625 136.492 111.148 136.697 111.523C136.901 111.886 137.185 112.142 137.549 112.29C137.924 112.437 138.356 112.511 138.844 112.511C139.185 112.511 139.526 112.483 139.867 112.426C140.208 112.358 140.469 112.307 140.651 112.273L141.793 117.676C141.43 117.79 140.918 117.92 140.259 118.068C139.6 118.227 138.799 118.324 137.856 118.358C136.106 118.426 134.572 118.193 133.254 117.659C131.947 117.125 130.93 116.295 130.202 115.17C129.475 114.045 129.117 112.625 129.129 110.909V85.5455ZM157.292 83.0909H166.394L176.008 106.545H176.417L186.031 83.0909H195.133V118H187.974V95.2784H187.684L178.65 117.83H173.775L164.741 95.1932H164.451V118H157.292V83.0909ZM208.543 118.494C206.873 118.494 205.384 118.205 204.077 117.625C202.771 117.034 201.737 116.165 200.975 115.017C200.225 113.858 199.85 112.415 199.85 110.688C199.85 109.233 200.117 108.011 200.651 107.023C201.185 106.034 201.913 105.239 202.833 104.636C203.754 104.034 204.799 103.58 205.969 103.273C207.151 102.966 208.39 102.75 209.685 102.625C211.208 102.466 212.435 102.318 213.367 102.182C214.299 102.034 214.975 101.818 215.396 101.534C215.816 101.25 216.026 100.83 216.026 100.273V100.17C216.026 99.0909 215.685 98.2557 215.004 97.6648C214.333 97.0739 213.379 96.7784 212.14 96.7784C210.833 96.7784 209.793 97.0682 209.021 97.6477C208.248 98.2159 207.737 98.9318 207.487 99.7955L200.771 99.25C201.112 97.6591 201.782 96.2841 202.782 95.125C203.782 93.9545 205.072 93.0568 206.651 92.4318C208.242 91.7955 210.083 91.4773 212.174 91.4773C213.629 91.4773 215.021 91.6477 216.35 91.9886C217.691 92.3295 218.879 92.858 219.913 93.5739C220.958 94.2898 221.782 95.2102 222.384 96.3352C222.987 97.4489 223.288 98.7841 223.288 100.341V118H216.401V114.369H216.197C215.776 115.188 215.214 115.909 214.509 116.534C213.805 117.148 212.958 117.631 211.969 117.983C210.981 118.324 209.839 118.494 208.543 118.494ZM210.623 113.483C211.691 113.483 212.634 113.273 213.452 112.852C214.271 112.42 214.913 111.841 215.379 111.114C215.844 110.386 216.077 109.562 216.077 108.642V105.864C215.85 106.011 215.538 106.148 215.14 106.273C214.754 106.386 214.316 106.494 213.827 106.597C213.339 106.687 212.85 106.773 212.362 106.852C211.873 106.92 211.43 106.983 211.032 107.04C210.18 107.165 209.435 107.364 208.799 107.636C208.163 107.909 207.668 108.278 207.316 108.744C206.964 109.199 206.788 109.767 206.788 110.449C206.788 111.438 207.146 112.193 207.862 112.716C208.589 113.227 209.509 113.483 210.623 113.483ZM236.183 102.864V118H228.921V91.8182H235.842V96.4375H236.148C236.728 94.9148 237.7 93.7102 239.063 92.8239C240.427 91.9261 242.08 91.4773 244.023 91.4773C245.842 91.4773 247.427 91.875 248.779 92.6705C250.131 93.4659 251.183 94.6023 251.933 96.0795C252.683 97.5455 253.058 99.2955 253.058 101.33V118H245.796V102.625C245.808 101.023 245.398 99.7727 244.569 98.875C243.739 97.9659 242.597 97.5114 241.143 97.5114C240.165 97.5114 239.302 97.7216 238.552 98.142C237.813 98.5625 237.234 99.1761 236.813 99.983C236.404 100.778 236.194 101.739 236.183 102.864ZM275.57 106.852V91.8182H282.832V118H275.86V113.244H275.587C274.996 114.778 274.013 116.011 272.638 116.943C271.275 117.875 269.61 118.341 267.644 118.341C265.894 118.341 264.354 117.943 263.025 117.148C261.695 116.352 260.656 115.222 259.906 113.756C259.167 112.29 258.792 110.534 258.781 108.489V91.8182H266.042V107.193C266.053 108.739 266.468 109.96 267.286 110.858C268.104 111.756 269.201 112.205 270.576 112.205C271.451 112.205 272.269 112.006 273.031 111.608C273.792 111.199 274.406 110.597 274.871 109.801C275.349 109.006 275.582 108.023 275.57 106.852ZM302.719 91.8182V97.2727H286.56V91.8182H302.719ZM290.259 118V89.9261C290.259 88.0284 290.629 86.4545 291.367 85.2045C292.117 83.9545 293.14 83.017 294.435 82.392C295.731 81.767 297.202 81.4545 298.85 81.4545C299.964 81.4545 300.981 81.5398 301.901 81.7102C302.833 81.8807 303.526 82.0341 303.981 82.1705L302.685 87.625C302.401 87.5341 302.049 87.4489 301.629 87.3693C301.219 87.2898 300.799 87.25 300.367 87.25C299.299 87.25 298.555 87.5 298.134 88C297.714 88.4886 297.504 89.1761 297.504 90.0625V118H290.259ZM313.684 118.494C312.013 118.494 310.525 118.205 309.218 117.625C307.911 117.034 306.877 116.165 306.116 115.017C305.366 113.858 304.991 112.415 304.991 110.688C304.991 109.233 305.258 108.011 305.792 107.023C306.326 106.034 307.053 105.239 307.974 104.636C308.894 104.034 309.94 103.58 311.11 103.273C312.292 102.966 313.531 102.75 314.826 102.625C316.349 102.466 317.576 102.318 318.508 102.182C319.44 102.034 320.116 101.818 320.536 101.534C320.957 101.25 321.167 100.83 321.167 100.273V100.17C321.167 99.0909 320.826 98.2557 320.144 97.6648C319.474 97.0739 318.519 96.7784 317.281 96.7784C315.974 96.7784 314.934 97.0682 314.161 97.6477C313.388 98.2159 312.877 98.9318 312.627 99.7955L305.911 99.25C306.252 97.6591 306.923 96.2841 307.923 95.125C308.923 93.9545 310.212 93.0568 311.792 92.4318C313.383 91.7955 315.224 91.4773 317.315 91.4773C318.769 91.4773 320.161 91.6477 321.491 91.9886C322.832 92.3295 324.019 92.858 325.053 93.5739C326.099 94.2898 326.923 95.2102 327.525 96.3352C328.127 97.4489 328.428 98.7841 328.428 100.341V118H321.542V114.369H321.337C320.917 115.188 320.354 115.909 319.65 116.534C318.945 117.148 318.099 117.631 317.11 117.983C316.121 118.324 314.979 118.494 313.684 118.494ZM315.763 113.483C316.832 113.483 317.775 113.273 318.593 112.852C319.411 112.42 320.053 111.841 320.519 111.114C320.985 110.386 321.218 109.562 321.218 108.642V105.864C320.991 106.011 320.678 106.148 320.281 106.273C319.894 106.386 319.457 106.494 318.968 106.597C318.479 106.687 317.991 106.773 317.502 106.852C317.013 106.92 316.57 106.983 316.173 107.04C315.32 107.165 314.576 107.364 313.94 107.636C313.303 107.909 312.809 108.278 312.457 108.744C312.104 109.199 311.928 109.767 311.928 110.449C311.928 111.438 312.286 112.193 313.002 112.716C313.729 113.227 314.65 113.483 315.763 113.483ZM345.891 118.511C343.21 118.511 340.903 117.943 338.971 116.807C337.05 115.659 335.573 114.068 334.539 112.034C333.516 110 333.005 107.659 333.005 105.011C333.005 102.33 333.522 99.9773 334.556 97.9545C335.602 95.9205 337.085 94.3352 339.005 93.1989C340.925 92.0511 343.21 91.4773 345.857 91.4773C348.141 91.4773 350.141 91.892 351.857 92.7216C353.573 93.5511 354.931 94.7159 355.931 96.2159C356.931 97.7159 357.482 99.4773 357.585 101.5H350.732C350.539 100.193 350.028 99.142 349.198 98.3466C348.38 97.5398 347.306 97.1364 345.977 97.1364C344.852 97.1364 343.869 97.4432 343.028 98.0568C342.198 98.6591 341.55 99.5398 341.085 100.699C340.619 101.858 340.386 103.261 340.386 104.909C340.386 106.58 340.613 108 341.067 109.17C341.533 110.341 342.187 111.233 343.028 111.847C343.869 112.46 344.852 112.767 345.977 112.767C346.806 112.767 347.55 112.597 348.21 112.256C348.88 111.915 349.431 111.42 349.863 110.773C350.306 110.114 350.596 109.324 350.732 108.403H357.585C357.471 110.403 356.925 112.165 355.948 113.688C354.982 115.199 353.647 116.381 351.942 117.233C350.238 118.085 348.221 118.511 345.891 118.511ZM376.16 91.8182V97.2727H360.393V91.8182H376.16ZM363.972 85.5455H371.234V109.955C371.234 110.625 371.336 111.148 371.54 111.523C371.745 111.886 372.029 112.142 372.393 112.29C372.768 112.437 373.2 112.511 373.688 112.511C374.029 112.511 374.37 112.483 374.711 112.426C375.052 112.358 375.313 112.307 375.495 112.273L376.637 117.676C376.273 117.79 375.762 117.92 375.103 118.068C374.444 118.227 373.643 118.324 372.7 118.358C370.95 118.426 369.415 118.193 368.097 117.659C366.79 117.125 365.773 116.295 365.046 115.17C364.319 114.045 363.961 112.625 363.972 110.909V85.5455ZM397.68 106.852V91.8182H404.941V118H397.969V113.244H397.697C397.106 114.778 396.123 116.011 394.748 116.943C393.384 117.875 391.719 118.341 389.754 118.341C388.004 118.341 386.464 117.943 385.134 117.148C383.805 116.352 382.765 115.222 382.015 113.756C381.276 112.29 380.901 110.534 380.89 108.489V91.8182H388.151V107.193C388.163 108.739 388.577 109.96 389.396 110.858C390.214 111.756 391.31 112.205 392.685 112.205C393.56 112.205 394.379 112.006 395.14 111.608C395.901 111.199 396.515 110.597 396.981 109.801C397.458 109.006 397.691 108.023 397.68 106.852ZM410.749 118V91.8182H417.789V96.3864H418.062C418.539 94.7614 419.34 93.5341 420.465 92.7045C421.59 91.8636 422.886 91.4432 424.352 91.4432C424.715 91.4432 425.107 91.4659 425.528 91.5114C425.948 91.5568 426.317 91.6193 426.636 91.6989V98.142C426.295 98.0398 425.823 97.9489 425.221 97.8693C424.619 97.7898 424.067 97.75 423.567 97.75C422.499 97.75 421.545 97.983 420.704 98.4489C419.874 98.9034 419.215 99.5398 418.727 100.358C418.249 101.176 418.011 102.119 418.011 103.188V118H410.749ZM430.39 118V91.8182H437.651V118H430.39ZM434.038 88.4432C432.958 88.4432 432.032 88.0852 431.259 87.3693C430.498 86.642 430.117 85.7727 430.117 84.7614C430.117 83.7614 430.498 82.9034 431.259 82.1875C432.032 81.4602 432.958 81.0966 434.038 81.0966C435.117 81.0966 436.038 81.4602 436.799 82.1875C437.572 82.9034 437.958 83.7614 437.958 84.7614C437.958 85.7727 437.572 86.642 436.799 87.3693C436.038 88.0852 435.117 88.4432 434.038 88.4432ZM450.729 102.864V118H443.468V91.8182H450.388V96.4375H450.695C451.275 94.9148 452.246 93.7102 453.61 92.8239C454.974 91.9261 456.627 91.4773 458.57 91.4773C460.388 91.4773 461.974 91.875 463.326 92.6705C464.678 93.4659 465.729 94.6023 466.479 96.0795C467.229 97.5455 467.604 99.2955 467.604 101.33V118H460.343V102.625C460.354 101.023 459.945 99.7727 459.116 98.875C458.286 97.9659 457.144 97.5114 455.69 97.5114C454.712 97.5114 453.849 97.7216 453.099 98.142C452.36 98.5625 451.781 99.1761 451.36 99.983C450.951 100.778 450.741 101.739 450.729 102.864ZM485.123 128.364C482.771 128.364 480.754 128.04 479.072 127.392C477.401 126.756 476.072 125.886 475.083 124.784C474.094 123.682 473.452 122.443 473.157 121.068L479.873 120.165C480.077 120.688 480.401 121.176 480.844 121.631C481.288 122.085 481.873 122.449 482.6 122.722C483.339 123.006 484.237 123.148 485.293 123.148C486.873 123.148 488.174 122.761 489.197 121.989C490.231 121.227 490.748 119.949 490.748 118.153V113.364H490.441C490.123 114.091 489.646 114.778 489.009 115.426C488.373 116.074 487.555 116.602 486.555 117.011C485.555 117.42 484.362 117.625 482.975 117.625C481.009 117.625 479.219 117.17 477.606 116.261C476.004 115.341 474.725 113.937 473.771 112.051C472.827 110.153 472.356 107.756 472.356 104.858C472.356 101.892 472.839 99.4148 473.805 97.4261C474.771 95.4375 476.055 93.9489 477.657 92.9602C479.271 91.9716 481.038 91.4773 482.958 91.4773C484.424 91.4773 485.651 91.7273 486.64 92.2273C487.629 92.7159 488.424 93.3295 489.026 94.0682C489.64 94.7955 490.112 95.5114 490.441 96.2159H490.714V91.8182H497.924V118.256C497.924 120.483 497.379 122.347 496.288 123.847C495.197 125.347 493.685 126.472 491.754 127.222C489.833 127.983 487.623 128.364 485.123 128.364ZM485.276 112.17C486.447 112.17 487.435 111.881 488.242 111.301C489.06 110.71 489.685 109.869 490.117 108.778C490.56 107.676 490.782 106.358 490.782 104.824C490.782 103.29 490.566 101.96 490.134 100.835C489.702 99.6989 489.077 98.8182 488.259 98.1932C487.441 97.5682 486.447 97.2557 485.276 97.2557C484.083 97.2557 483.077 97.5795 482.259 98.2273C481.441 98.8636 480.822 99.75 480.401 100.886C479.981 102.023 479.771 103.335 479.771 104.824C479.771 106.335 479.981 107.642 480.401 108.744C480.833 109.835 481.452 110.682 482.259 111.284C483.077 111.875 484.083 112.17 485.276 112.17ZM514.948 118V83.0909H528.721C531.369 83.0909 533.624 83.5966 535.488 84.608C537.352 85.608 538.772 87 539.749 88.7841C540.738 90.5568 541.232 92.6023 541.232 94.9205C541.232 97.2386 540.732 99.2841 539.732 101.057C538.732 102.83 537.283 104.21 535.386 105.199C533.499 106.187 531.215 106.682 528.533 106.682H519.755V100.767H527.34C528.761 100.767 529.931 100.523 530.852 100.034C531.783 99.5341 532.477 98.8466 532.931 97.9716C533.397 97.0852 533.63 96.0682 533.63 94.9205C533.63 93.7614 533.397 92.75 532.931 91.8864C532.477 91.0114 531.783 90.3352 530.852 89.858C529.92 89.3693 528.738 89.125 527.306 89.125H522.329V118H514.948ZM557.298 118.511C554.65 118.511 552.36 117.949 550.428 116.824C548.508 115.687 547.025 114.108 545.979 112.085C544.934 110.051 544.411 107.693 544.411 105.011C544.411 102.307 544.934 99.9432 545.979 97.9205C547.025 95.8864 548.508 94.3068 550.428 93.1818C552.36 92.0455 554.65 91.4773 557.298 91.4773C559.945 91.4773 562.229 92.0455 564.15 93.1818C566.082 94.3068 567.57 95.8864 568.616 97.9205C569.661 99.9432 570.184 102.307 570.184 105.011C570.184 107.693 569.661 110.051 568.616 112.085C567.57 114.108 566.082 115.687 564.15 116.824C562.229 117.949 559.945 118.511 557.298 118.511ZM557.332 112.886C558.536 112.886 559.542 112.545 560.349 111.864C561.156 111.17 561.763 110.227 562.173 109.034C562.593 107.841 562.803 106.483 562.803 104.96C562.803 103.438 562.593 102.08 562.173 100.886C561.763 99.6932 561.156 98.75 560.349 98.0568C559.542 97.3636 558.536 97.017 557.332 97.017C556.116 97.017 555.093 97.3636 554.263 98.0568C553.445 98.75 552.826 99.6932 552.406 100.886C551.996 102.08 551.792 103.438 551.792 104.96C551.792 106.483 551.996 107.841 552.406 109.034C552.826 110.227 553.445 111.17 554.263 111.864C555.093 112.545 556.116 112.886 557.332 112.886ZM574.906 118V91.8182H581.945V96.3864H582.218C582.695 94.7614 583.496 93.5341 584.621 92.7045C585.746 91.8636 587.042 91.4432 588.508 91.4432C588.871 91.4432 589.263 91.4659 589.684 91.5114C590.104 91.5568 590.474 91.6193 590.792 91.6989V98.142C590.451 98.0398 589.979 97.9489 589.377 97.8693C588.775 97.7898 588.224 97.75 587.724 97.75C586.656 97.75 585.701 97.983 584.86 98.4489C584.031 98.9034 583.371 99.5398 582.883 100.358C582.406 101.176 582.167 102.119 582.167 103.188V118H574.906ZM609.785 91.8182V97.2727H594.018V91.8182H609.785ZM597.597 85.5455H604.859V109.955C604.859 110.625 604.961 111.148 605.165 111.523C605.37 111.886 605.654 112.142 606.018 112.29C606.393 112.437 606.825 112.511 607.313 112.511C607.654 112.511 607.995 112.483 608.336 112.426C608.677 112.358 608.938 112.307 609.12 112.273L610.262 117.676C609.898 117.79 609.387 117.92 608.728 118.068C608.069 118.227 607.268 118.324 606.325 118.358C604.575 118.426 603.04 118.193 601.722 117.659C600.415 117.125 599.398 116.295 598.671 115.17C597.944 114.045 597.586 112.625 597.597 110.909V85.5455ZM621.981 118.494C620.31 118.494 618.822 118.205 617.515 117.625C616.208 117.034 615.174 116.165 614.413 115.017C613.663 113.858 613.288 112.415 613.288 110.688C613.288 109.233 613.555 108.011 614.089 107.023C614.623 106.034 615.35 105.239 616.271 104.636C617.191 104.034 618.237 103.58 619.407 103.273C620.589 102.966 621.827 102.75 623.123 102.625C624.646 102.466 625.873 102.318 626.805 102.182C627.737 102.034 628.413 101.818 628.833 101.534C629.254 101.25 629.464 100.83 629.464 100.273V100.17C629.464 99.0909 629.123 98.2557 628.441 97.6648C627.771 97.0739 626.816 96.7784 625.577 96.7784C624.271 96.7784 623.231 97.0682 622.458 97.6477C621.685 98.2159 621.174 98.9318 620.924 99.7955L614.208 99.25C614.549 97.6591 615.219 96.2841 616.219 95.125C617.219 93.9545 618.509 93.0568 620.089 92.4318C621.68 91.7955 623.521 91.4773 625.612 91.4773C627.066 91.4773 628.458 91.6477 629.788 91.9886C631.129 92.3295 632.316 92.858 633.35 93.5739C634.396 94.2898 635.219 95.2102 635.822 96.3352C636.424 97.4489 636.725 98.7841 636.725 100.341V118H629.839V114.369H629.634C629.214 115.188 628.651 115.909 627.947 116.534C627.242 117.148 626.396 117.631 625.407 117.983C624.418 118.324 623.276 118.494 621.981 118.494ZM624.06 113.483C625.129 113.483 626.072 113.273 626.89 112.852C627.708 112.42 628.35 111.841 628.816 111.114C629.282 110.386 629.515 109.562 629.515 108.642V105.864C629.288 106.011 628.975 106.148 628.577 106.273C628.191 106.386 627.754 106.494 627.265 106.597C626.776 106.687 626.288 106.773 625.799 106.852C625.31 106.92 624.867 106.983 624.469 107.04C623.617 107.165 622.873 107.364 622.237 107.636C621.6 107.909 621.106 108.278 620.754 108.744C620.401 109.199 620.225 109.767 620.225 110.449C620.225 111.438 620.583 112.193 621.299 112.716C622.026 113.227 622.947 113.483 624.06 113.483ZM649.62 83.0909V118H642.359V83.0909H649.62ZM146.891 142.289C149.091 142.367 151.357 142.406 153.688 142.406C156.031 142.406 158.297 142.367 160.484 142.289C160.536 142.497 160.562 142.641 160.562 142.719C160.562 142.81 160.536 142.973 160.484 143.207C160.094 143.246 159.781 143.279 159.547 143.305C159.312 143.331 158.987 143.376 158.57 143.441C158.167 143.507 157.835 143.585 157.574 143.676C157.327 143.754 157.066 143.858 156.793 143.988C156.52 144.118 156.311 144.275 156.168 144.457C156.038 144.639 155.973 144.848 155.973 145.082C155.921 146.814 155.895 151.573 155.895 159.359C155.895 163.07 156.513 165.766 157.75 167.445C159 169.125 161.116 169.965 164.098 169.965C167.105 169.965 169.423 169.053 171.051 167.23C172.678 165.395 173.492 162.771 173.492 159.359C173.492 153.148 173.453 148.48 173.375 145.355C173.349 144.184 171.91 143.467 169.059 143.207C169.007 142.921 168.98 142.745 168.98 142.68C168.98 142.576 169.007 142.445 169.059 142.289C171.129 142.367 172.978 142.406 174.605 142.406C175.647 142.406 177.398 142.367 179.859 142.289C179.911 142.445 179.938 142.576 179.938 142.68C179.938 142.888 179.911 143.064 179.859 143.207C177.034 143.467 175.589 144.184 175.523 145.355C175.393 148.454 175.328 153.122 175.328 159.359C175.328 161.26 175.081 162.96 174.586 164.457C174.091 165.941 173.46 167.133 172.691 168.031C171.923 168.93 171.025 169.672 169.996 170.258C168.98 170.844 167.997 171.247 167.047 171.469C166.096 171.69 165.139 171.801 164.176 171.801C162.887 171.801 161.728 171.729 160.699 171.586C159.671 171.443 158.668 171.202 157.691 170.863C156.715 170.512 155.868 170.03 155.152 169.418C154.436 168.793 153.805 168.031 153.258 167.133C152.711 166.234 152.301 165.134 152.027 163.832C151.754 162.53 151.617 161.039 151.617 159.359V156.156C151.617 151.794 151.546 148.103 151.402 145.082C151.389 144.743 151.24 144.457 150.953 144.223C150.667 143.975 150.25 143.786 149.703 143.656C149.169 143.526 148.714 143.435 148.336 143.383C147.971 143.318 147.49 143.259 146.891 143.207C146.839 142.973 146.812 142.81 146.812 142.719C146.812 142.641 146.839 142.497 146.891 142.289ZM192.379 170.199C192.457 170.355 192.496 170.518 192.496 170.688C192.496 170.818 192.457 170.961 192.379 171.117C190.66 171.039 188.993 171 187.379 171C185.79 171 184.137 171.039 182.418 171.117C182.366 170.909 182.34 170.766 182.34 170.688C182.34 170.622 182.366 170.46 182.418 170.199C182.848 170.147 183.199 170.095 183.473 170.043C183.746 169.978 184.085 169.88 184.488 169.75C184.892 169.62 185.198 169.438 185.406 169.203C185.615 168.956 185.725 168.663 185.738 168.324C185.79 167.035 185.816 165.473 185.816 163.637C185.816 163.025 185.81 161.983 185.797 160.512C185.784 159.04 185.777 157.751 185.777 156.645C185.035 156.189 183.785 155.922 182.027 155.844C181.975 155.635 181.949 155.473 181.949 155.355C181.949 155.277 181.975 155.134 182.027 154.926C184.553 154.665 186.754 154.132 188.629 153.324C188.954 153.454 189.182 153.624 189.312 153.832V156.918C190.576 155.811 191.786 154.926 192.945 154.262C194.104 153.585 195.276 153.246 196.461 153.246C197.945 153.246 198.993 153.663 199.605 154.496C200.23 155.329 200.556 156.632 200.582 158.402L200.777 168.324C200.79 168.663 200.888 168.956 201.07 169.203C201.266 169.438 201.539 169.62 201.891 169.75C202.255 169.88 202.555 169.978 202.789 170.043C203.023 170.095 203.329 170.147 203.707 170.199C203.759 170.46 203.785 170.635 203.785 170.727C203.785 170.831 203.759 170.961 203.707 171.117C202.027 171.039 200.478 171 199.059 171C197.678 171 196.148 171.039 194.469 171.117C194.417 170.909 194.391 170.753 194.391 170.648C194.391 170.557 194.417 170.408 194.469 170.199C194.807 170.147 195.087 170.095 195.309 170.043C195.543 169.978 195.803 169.88 196.09 169.75C196.389 169.62 196.611 169.438 196.754 169.203C196.91 168.956 196.988 168.663 196.988 168.324L197.027 159.047C197.027 156.69 196.318 155.512 194.898 155.512C193.57 155.512 191.708 156.397 189.312 158.168C189.312 161.957 189.365 165.342 189.469 168.324C189.482 168.663 189.579 168.956 189.762 169.203C189.957 169.438 190.23 169.62 190.582 169.75C190.934 169.88 191.227 169.978 191.461 170.043C191.695 170.095 192.001 170.147 192.379 170.199ZM206.285 154.926C208.811 154.665 211.012 154.132 212.887 153.324C213.212 153.454 213.44 153.624 213.57 153.832C213.57 160.59 213.622 165.421 213.727 168.324C213.74 168.663 213.837 168.956 214.02 169.203C214.215 169.438 214.488 169.62 214.84 169.75C215.191 169.88 215.484 169.978 215.719 170.043C215.953 170.095 216.259 170.147 216.637 170.199C216.715 170.355 216.754 170.518 216.754 170.688C216.754 170.857 216.715 171 216.637 171.117C214.918 171.039 213.251 171 211.637 171C210.048 171 208.395 171.039 206.676 171.117C206.624 170.909 206.598 170.766 206.598 170.688C206.598 170.622 206.624 170.46 206.676 170.199C207.105 170.147 207.457 170.095 207.73 170.043C208.004 169.978 208.342 169.88 208.746 169.75C209.15 169.62 209.456 169.438 209.664 169.203C209.872 168.956 209.983 168.663 209.996 168.324C210.048 167.035 210.074 165.473 210.074 163.637C210.074 163.025 210.068 161.983 210.055 160.512C210.042 159.04 210.035 157.751 210.035 156.645C209.293 156.189 208.043 155.922 206.285 155.844C206.233 155.635 206.207 155.473 206.207 155.355C206.207 155.277 206.233 155.134 206.285 154.926ZM209.352 146.762C209.352 146.098 209.586 145.531 210.055 145.062C210.536 144.594 211.103 144.359 211.754 144.359C212.418 144.359 212.984 144.594 213.453 145.062C213.922 145.531 214.156 146.098 214.156 146.762C214.156 147.413 213.922 147.979 213.453 148.461C212.984 148.93 212.418 149.164 211.754 149.164C211.103 149.164 210.536 148.93 210.055 148.461C209.586 147.979 209.352 147.413 209.352 146.762ZM217.242 153.676C218.961 153.754 220.693 153.793 222.438 153.793C223.909 153.793 225.484 153.754 227.164 153.676C227.216 153.884 227.242 154.047 227.242 154.164C227.242 154.242 227.216 154.385 227.164 154.594C226.799 154.62 226.5 154.652 226.266 154.691C226.044 154.717 225.764 154.77 225.426 154.848C225.087 154.926 224.833 155.043 224.664 155.199C224.495 155.355 224.41 155.544 224.41 155.766C224.41 155.883 224.462 156.124 224.566 156.488L228.121 166.352H228.238L232.398 156.488C232.542 156.137 232.613 155.857 232.613 155.648C232.613 155.049 231.865 154.698 230.367 154.594C230.315 154.385 230.289 154.242 230.289 154.164C230.289 154.047 230.315 153.884 230.367 153.676C231.891 153.754 232.835 153.793 233.199 153.793C234.293 153.793 235.68 153.754 237.359 153.676C237.411 153.832 237.438 153.969 237.438 154.086C237.438 154.164 237.411 154.333 237.359 154.594C235.81 154.659 234.755 155.29 234.195 156.488L227.516 171.566H226.559L220.641 156.488C220.51 156.15 220.315 155.863 220.055 155.629C219.807 155.382 219.482 155.193 219.078 155.062C218.688 154.919 218.382 154.822 218.16 154.77C217.952 154.717 217.646 154.659 217.242 154.594C217.19 154.49 217.164 154.346 217.164 154.164C217.164 153.969 217.19 153.806 217.242 153.676ZM253.863 160.648H243.219C243.167 161.43 243.141 162.12 243.141 162.719C243.18 164.659 243.746 166.215 244.84 167.387C245.934 168.546 247.398 169.125 249.234 169.125C249.729 169.125 250.191 169.073 250.621 168.969C251.051 168.852 251.402 168.721 251.676 168.578C251.962 168.435 252.255 168.227 252.555 167.953C252.854 167.68 253.069 167.465 253.199 167.309C253.342 167.139 253.531 166.892 253.766 166.566C254 166.228 254.156 166.013 254.234 165.922C254.547 165.987 254.801 166.13 254.996 166.352C254.345 168.096 253.336 169.405 251.969 170.277C250.602 171.137 249.117 171.566 247.516 171.566C246.721 171.566 245.947 171.462 245.191 171.254C244.449 171.059 243.727 170.733 243.023 170.277C242.32 169.822 241.708 169.262 241.188 168.598C240.667 167.921 240.25 167.081 239.938 166.078C239.625 165.062 239.469 163.943 239.469 162.719C239.469 159.971 240.309 157.706 241.988 155.922C243.668 154.138 245.732 153.246 248.18 153.246C249.26 153.246 250.198 153.402 250.992 153.715C251.799 154.014 252.424 154.424 252.867 154.945C253.323 155.466 253.655 156.039 253.863 156.664C254.085 157.276 254.195 157.934 254.195 158.637C254.195 159.288 254.085 159.958 253.863 160.648ZM247.711 154.516C246.812 154.516 245.96 154.913 245.152 155.707C244.358 156.501 243.785 157.706 243.434 159.32H250.465C250.595 158.826 250.66 158.396 250.66 158.031C250.66 157.016 250.426 156.176 249.957 155.512C249.488 154.848 248.74 154.516 247.711 154.516ZM258.082 154.926C260.608 154.665 262.809 154.132 264.684 153.324C265.009 153.454 265.237 153.624 265.367 153.832V157.191C265.849 156.28 266.565 155.395 267.516 154.535C268.479 153.676 269.482 153.246 270.523 153.246C271.305 153.246 271.936 153.48 272.418 153.949C272.913 154.405 273.16 155.036 273.16 155.844C273.16 156.612 272.932 157.211 272.477 157.641C272.021 158.07 271.448 158.285 270.758 158.285C270.12 158.285 269.592 158.083 269.176 157.68C268.772 157.263 268.551 156.716 268.512 156.039C267.965 156.273 267.34 156.794 266.637 157.602C265.947 158.409 265.523 159.21 265.367 160.004C265.367 162.908 265.419 165.681 265.523 168.324C265.536 168.663 265.66 168.956 265.895 169.203C266.129 169.438 266.474 169.62 266.93 169.75C267.385 169.88 267.763 169.978 268.062 170.043C268.362 170.095 268.753 170.147 269.234 170.199C269.312 170.355 269.352 170.518 269.352 170.688C269.352 170.818 269.312 170.961 269.234 171.117C267.281 171.039 265.348 171 263.434 171C261.845 171 260.191 171.039 258.473 171.117C258.421 170.909 258.395 170.766 258.395 170.688C258.395 170.622 258.421 170.46 258.473 170.199C258.902 170.147 259.254 170.095 259.527 170.043C259.801 169.978 260.139 169.88 260.543 169.75C260.947 169.62 261.253 169.438 261.461 169.203C261.669 168.956 261.78 168.663 261.793 168.324C261.845 167.035 261.871 165.473 261.871 163.637C261.871 163.025 261.865 161.983 261.852 160.512C261.839 159.04 261.832 157.751 261.832 156.645C261.09 156.189 259.84 155.922 258.082 155.844C258.03 155.635 258.004 155.473 258.004 155.355C258.004 155.277 258.03 155.134 258.082 154.926ZM283.219 171.566C282.581 171.566 282.001 171.514 281.48 171.41C280.973 171.306 280.576 171.195 280.289 171.078C280.016 170.961 279.645 170.785 279.176 170.551C278.668 170.551 277.919 170.74 276.93 171.117C276.76 171.013 276.643 170.896 276.578 170.766C276.643 170.557 276.721 169.848 276.812 168.637C276.917 167.426 276.969 166.345 276.969 165.395C277.138 165.316 277.444 165.277 277.887 165.277C278.121 166.033 278.362 166.677 278.609 167.211C278.87 167.745 279.195 168.266 279.586 168.773C279.99 169.268 280.471 169.646 281.031 169.906C281.604 170.154 282.255 170.277 282.984 170.277C284.117 170.277 285.003 169.984 285.641 169.398C286.292 168.812 286.617 168.148 286.617 167.406C286.617 166.846 286.526 166.371 286.344 165.98C286.161 165.59 285.751 165.18 285.113 164.75C284.488 164.307 283.59 163.871 282.418 163.441C281.689 163.181 281.07 162.94 280.562 162.719C280.055 162.497 279.527 162.224 278.98 161.898C278.447 161.573 278.017 161.241 277.691 160.902C277.366 160.551 277.099 160.134 276.891 159.652C276.682 159.171 276.578 158.643 276.578 158.07C276.578 157.654 276.624 157.243 276.715 156.84C276.819 156.423 277.008 155.993 277.281 155.551C277.568 155.108 277.919 154.724 278.336 154.398C278.766 154.06 279.332 153.786 280.035 153.578C280.751 153.357 281.559 153.246 282.457 153.246C282.822 153.246 283.141 153.266 283.414 153.305C283.701 153.344 284.039 153.415 284.43 153.52C284.833 153.611 285.055 153.663 285.094 153.676C285.38 153.611 285.673 153.526 285.973 153.422C286.285 153.318 286.461 153.259 286.5 153.246H287.008C287.32 155.121 287.724 156.716 288.219 158.031C288.062 158.201 287.809 158.285 287.457 158.285C286.376 156.983 285.452 156.033 284.684 155.434C283.928 154.822 283.069 154.516 282.105 154.516C281.35 154.516 280.686 154.685 280.113 155.023C279.54 155.362 279.254 155.876 279.254 156.566C279.254 157.439 279.599 158.122 280.289 158.617C280.992 159.112 282.288 159.743 284.176 160.512C285.048 160.863 285.732 161.156 286.227 161.391C286.734 161.625 287.242 161.905 287.75 162.23C288.258 162.556 288.629 162.895 288.863 163.246C289.111 163.585 289.312 163.995 289.469 164.477C289.625 164.958 289.703 165.518 289.703 166.156C289.703 167.536 289.065 168.786 287.789 169.906C286.526 171.013 285.003 171.566 283.219 171.566ZM293.199 154.926C295.725 154.665 297.926 154.132 299.801 153.324C300.126 153.454 300.354 153.624 300.484 153.832C300.484 160.59 300.536 165.421 300.641 168.324C300.654 168.663 300.751 168.956 300.934 169.203C301.129 169.438 301.402 169.62 301.754 169.75C302.105 169.88 302.398 169.978 302.633 170.043C302.867 170.095 303.173 170.147 303.551 170.199C303.629 170.355 303.668 170.518 303.668 170.688C303.668 170.857 303.629 171 303.551 171.117C301.832 171.039 300.165 171 298.551 171C296.962 171 295.309 171.039 293.59 171.117C293.538 170.909 293.512 170.766 293.512 170.688C293.512 170.622 293.538 170.46 293.59 170.199C294.02 170.147 294.371 170.095 294.645 170.043C294.918 169.978 295.257 169.88 295.66 169.75C296.064 169.62 296.37 169.438 296.578 169.203C296.786 168.956 296.897 168.663 296.91 168.324C296.962 167.035 296.988 165.473 296.988 163.637C296.988 163.025 296.982 161.983 296.969 160.512C296.956 159.04 296.949 157.751 296.949 156.645C296.207 156.189 294.957 155.922 293.199 155.844C293.147 155.635 293.121 155.473 293.121 155.355C293.121 155.277 293.147 155.134 293.199 154.926ZM296.266 146.762C296.266 146.098 296.5 145.531 296.969 145.062C297.451 144.594 298.017 144.359 298.668 144.359C299.332 144.359 299.898 144.594 300.367 145.062C300.836 145.531 301.07 146.098 301.07 146.762C301.07 147.413 300.836 147.979 300.367 148.461C299.898 148.93 299.332 149.164 298.668 149.164C298.017 149.164 297.451 148.93 296.969 148.461C296.5 147.979 296.266 147.413 296.266 146.762ZM311.91 149.926C312.04 149.874 312.19 149.848 312.359 149.848C312.529 149.848 312.704 149.874 312.887 149.926V154.203H318.805C318.883 154.398 318.922 154.639 318.922 154.926C318.922 155.173 318.883 155.401 318.805 155.609H312.887V166.039C312.887 168.096 313.831 169.125 315.719 169.125C316.435 169.125 317.047 168.988 317.555 168.715C318.076 168.441 318.648 168.031 319.273 167.484C319.599 167.523 319.814 167.68 319.918 167.953C319.345 168.982 318.499 169.841 317.379 170.531C316.259 171.221 315.029 171.566 313.688 171.566C310.536 171.566 308.961 169.659 308.961 165.844V155.609H306.559C306.507 155.375 306.48 155.225 306.48 155.16C306.48 155.147 306.507 154.997 306.559 154.711C307.184 154.398 307.659 154.145 307.984 153.949C308.323 153.741 308.746 153.448 309.254 153.07C309.775 152.693 310.243 152.25 310.66 151.742C311.09 151.221 311.507 150.616 311.91 149.926ZM319.215 153.676C320.934 153.754 322.672 153.793 324.43 153.793C326.031 153.793 327.672 153.754 329.352 153.676C329.404 153.884 329.43 154.047 329.43 154.164C329.43 154.242 329.404 154.385 329.352 154.594C328.961 154.62 328.648 154.652 328.414 154.691C328.18 154.717 327.874 154.77 327.496 154.848C327.132 154.926 326.852 155.043 326.656 155.199C326.474 155.355 326.383 155.544 326.383 155.766C326.383 155.883 326.435 156.124 326.539 156.488L330.504 166.352H330.621L334.391 156.488C334.521 156.163 334.586 155.883 334.586 155.648C334.586 155.049 333.837 154.698 332.34 154.594C332.288 154.385 332.262 154.242 332.262 154.164C332.262 154.047 332.288 153.884 332.34 153.676C333.863 153.754 334.814 153.793 335.191 153.793C336.285 153.793 337.672 153.754 339.352 153.676C339.404 153.832 339.43 153.969 339.43 154.086C339.43 154.164 339.404 154.333 339.352 154.594C337.724 154.659 336.669 155.29 336.188 156.488L330.152 170.922H330.191L328.023 176.605C327.216 178.715 326.461 180.141 325.758 180.883C325.068 181.625 324.182 181.996 323.102 181.996C322.229 181.996 321.5 181.736 320.914 181.215C320.341 180.694 320.055 180.01 320.055 179.164C320.055 178.396 320.27 177.79 320.699 177.348C321.129 176.905 321.663 176.684 322.301 176.684C322.887 176.684 323.336 176.859 323.648 177.211C323.974 177.562 324.137 177.96 324.137 178.402C324.137 179.027 323.857 179.522 323.297 179.887C323.362 180.173 323.577 180.316 323.941 180.316C324.358 180.316 324.749 180.076 325.113 179.594C325.478 179.125 325.953 178.116 326.539 176.566L328.707 171L322.613 156.488C322.47 156.163 322.268 155.883 322.008 155.648C321.747 155.401 321.428 155.212 321.051 155.082C320.686 154.939 320.38 154.841 320.133 154.789C319.885 154.724 319.579 154.659 319.215 154.594C319.163 154.49 319.137 154.346 319.137 154.164C319.137 153.969 319.163 153.806 319.215 153.676ZM359.82 153.246C361.109 153.246 362.268 153.474 363.297 153.93C364.339 154.385 365.224 155.017 365.953 155.824C366.682 156.632 367.242 157.602 367.633 158.734C368.023 159.854 368.219 161.078 368.219 162.406C368.219 165.115 367.457 167.315 365.934 169.008C364.423 170.714 362.385 171.566 359.82 171.566C358.544 171.566 357.385 171.345 356.344 170.902C355.315 170.447 354.436 169.815 353.707 169.008C352.978 168.188 352.411 167.217 352.008 166.098C351.617 164.978 351.422 163.747 351.422 162.406C351.422 161.078 351.617 159.854 352.008 158.734C352.398 157.602 352.952 156.632 353.668 155.824C354.397 155.017 355.283 154.385 356.324 153.93C357.366 153.474 358.531 153.246 359.82 153.246ZM359.82 154.516C358.492 154.516 357.431 155.16 356.637 156.449C355.855 157.738 355.465 159.724 355.465 162.406C355.465 165.089 355.855 167.074 356.637 168.363C357.431 169.639 358.492 170.277 359.82 170.277C361.148 170.277 362.203 169.633 362.984 168.344C363.779 167.055 364.176 165.076 364.176 162.406C364.176 161.065 364.072 159.9 363.863 158.91C363.655 157.921 363.362 157.1 362.984 156.449C362.607 155.798 362.151 155.316 361.617 155.004C361.083 154.678 360.484 154.516 359.82 154.516ZM383.102 171.117C381.383 171.039 379.371 171 377.066 171C375.478 171 373.824 171.039 372.105 171.117C372.053 170.909 372.027 170.766 372.027 170.688C372.027 170.622 372.053 170.46 372.105 170.199C372.535 170.147 372.88 170.095 373.141 170.043C373.414 169.978 373.753 169.88 374.156 169.75C374.573 169.62 374.885 169.438 375.094 169.203C375.302 168.956 375.413 168.663 375.426 168.324C375.478 167.035 375.504 162.797 375.504 155.609H372.867C372.789 155.401 372.75 155.173 372.75 154.926C372.75 154.639 372.789 154.398 372.867 154.203H375.504V152.152C375.504 150.72 375.686 149.366 376.051 148.09C376.428 146.801 376.969 145.648 377.672 144.633C378.388 143.617 379.326 142.81 380.484 142.211C381.656 141.612 382.971 141.312 384.43 141.312C385.784 141.312 386.917 141.658 387.828 142.348C388.753 143.025 389.215 143.923 389.215 145.043C389.215 145.733 388.987 146.332 388.531 146.84C388.076 147.348 387.49 147.602 386.773 147.602C386.083 147.602 385.53 147.432 385.113 147.094C384.71 146.742 384.508 146.299 384.508 145.766C384.508 145.388 384.618 145.023 384.84 144.672C385.074 144.32 385.4 144.073 385.816 143.93C385.556 143.5 385.243 143.227 384.879 143.109C384.514 142.979 383.948 142.914 383.18 142.914C381.982 142.914 380.979 143.344 380.172 144.203C379.378 145.062 378.98 146.195 378.98 147.602V154.203H383.219C383.297 154.398 383.336 154.639 383.336 154.926C383.336 155.173 383.297 155.401 383.219 155.609H378.98C378.98 162.055 379.033 166.293 379.137 168.324C379.15 168.663 379.28 168.956 379.527 169.203C379.775 169.438 380.133 169.62 380.602 169.75C381.07 169.88 381.474 169.978 381.812 170.043C382.151 170.095 382.581 170.147 383.102 170.199C383.154 170.46 383.18 170.635 383.18 170.727C383.18 170.831 383.154 170.961 383.102 171.117ZM397.027 142.289C399.944 142.393 402.275 142.445 404.02 142.445C407.275 142.341 409.273 142.289 410.016 142.289C411.227 142.289 412.366 142.341 413.434 142.445C414.501 142.549 415.602 142.745 416.734 143.031C417.88 143.305 418.915 143.669 419.84 144.125C420.764 144.568 421.65 145.16 422.496 145.902C423.342 146.645 424.052 147.504 424.625 148.48C425.198 149.457 425.654 150.635 425.992 152.016C426.331 153.383 426.5 154.9 426.5 156.566C426.396 158.168 426.116 159.639 425.66 160.98C425.217 162.322 424.645 163.48 423.941 164.457C423.251 165.434 422.431 166.306 421.48 167.074C420.53 167.842 419.534 168.467 418.492 168.949C417.464 169.431 416.344 169.828 415.133 170.141C413.935 170.453 412.763 170.674 411.617 170.805C410.484 170.935 409.312 171 408.102 171C403.219 171 399.514 171.039 396.988 171.117C396.936 170.961 396.91 170.831 396.91 170.727C396.91 170.635 396.936 170.46 396.988 170.199C397.379 170.16 397.691 170.128 397.926 170.102C398.16 170.076 398.479 170.03 398.883 169.965C399.299 169.9 399.632 169.828 399.879 169.75C400.139 169.659 400.406 169.548 400.68 169.418C400.953 169.288 401.155 169.132 401.285 168.949C401.428 168.767 401.5 168.559 401.5 168.324C401.656 164.249 401.734 160.141 401.734 156C401.734 151.781 401.669 148.142 401.539 145.082C401.526 144.743 401.376 144.457 401.09 144.223C400.803 143.975 400.387 143.786 399.84 143.656C399.306 143.526 398.85 143.435 398.473 143.383C398.108 143.318 397.626 143.259 397.027 143.207C396.975 142.973 396.949 142.81 396.949 142.719C396.949 142.641 396.975 142.497 397.027 142.289ZM406.109 145.082C405.94 149.509 405.855 153.63 405.855 157.445C405.855 159.555 405.927 163.591 406.07 169.555C406.63 169.581 407.431 169.594 408.473 169.594C410.582 169.594 412.457 169.275 414.098 168.637C415.738 167.986 417.086 167.081 418.141 165.922C419.195 164.763 419.99 163.396 420.523 161.82C421.07 160.232 421.344 158.48 421.344 156.566C421.344 155.577 421.266 154.607 421.109 153.656C420.953 152.706 420.706 151.736 420.367 150.746C420.029 149.757 419.56 148.845 418.961 148.012C418.362 147.178 417.646 146.436 416.812 145.785C415.992 145.121 414.977 144.607 413.766 144.242C412.568 143.865 411.24 143.676 409.781 143.676C408.44 143.676 407.216 143.76 406.109 143.93V145.082ZM445.895 160.648H435.25C435.198 161.43 435.172 162.12 435.172 162.719C435.211 164.659 435.777 166.215 436.871 167.387C437.965 168.546 439.43 169.125 441.266 169.125C441.76 169.125 442.223 169.073 442.652 168.969C443.082 168.852 443.434 168.721 443.707 168.578C443.993 168.435 444.286 168.227 444.586 167.953C444.885 167.68 445.1 167.465 445.23 167.309C445.374 167.139 445.562 166.892 445.797 166.566C446.031 166.228 446.188 166.013 446.266 165.922C446.578 165.987 446.832 166.13 447.027 166.352C446.376 168.096 445.367 169.405 444 170.277C442.633 171.137 441.148 171.566 439.547 171.566C438.753 171.566 437.978 171.462 437.223 171.254C436.48 171.059 435.758 170.733 435.055 170.277C434.352 169.822 433.74 169.262 433.219 168.598C432.698 167.921 432.281 167.081 431.969 166.078C431.656 165.062 431.5 163.943 431.5 162.719C431.5 159.971 432.34 157.706 434.02 155.922C435.699 154.138 437.763 153.246 440.211 153.246C441.292 153.246 442.229 153.402 443.023 153.715C443.831 154.014 444.456 154.424 444.898 154.945C445.354 155.466 445.686 156.039 445.895 156.664C446.116 157.276 446.227 157.934 446.227 158.637C446.227 159.288 446.116 159.958 445.895 160.648ZM439.742 154.516C438.844 154.516 437.991 154.913 437.184 155.707C436.389 156.501 435.816 157.706 435.465 159.32H442.496C442.626 158.826 442.691 158.396 442.691 158.031C442.691 157.016 442.457 156.176 441.988 155.512C441.52 154.848 440.771 154.516 439.742 154.516ZM450.113 154.926C452.639 154.665 454.84 154.132 456.715 153.324C457.04 153.454 457.268 153.624 457.398 153.832V157.191C457.88 156.28 458.596 155.395 459.547 154.535C460.51 153.676 461.513 153.246 462.555 153.246C463.336 153.246 463.967 153.48 464.449 153.949C464.944 154.405 465.191 155.036 465.191 155.844C465.191 156.612 464.964 157.211 464.508 157.641C464.052 158.07 463.479 158.285 462.789 158.285C462.151 158.285 461.624 158.083 461.207 157.68C460.803 157.263 460.582 156.716 460.543 156.039C459.996 156.273 459.371 156.794 458.668 157.602C457.978 158.409 457.555 159.21 457.398 160.004C457.398 162.908 457.451 165.681 457.555 168.324C457.568 168.663 457.691 168.956 457.926 169.203C458.16 169.438 458.505 169.62 458.961 169.75C459.417 169.88 459.794 169.978 460.094 170.043C460.393 170.095 460.784 170.147 461.266 170.199C461.344 170.355 461.383 170.518 461.383 170.688C461.383 170.818 461.344 170.961 461.266 171.117C459.312 171.039 457.379 171 455.465 171C453.876 171 452.223 171.039 450.504 171.117C450.452 170.909 450.426 170.766 450.426 170.688C450.426 170.622 450.452 170.46 450.504 170.199C450.934 170.147 451.285 170.095 451.559 170.043C451.832 169.978 452.171 169.88 452.574 169.75C452.978 169.62 453.284 169.438 453.492 169.203C453.701 168.956 453.811 168.663 453.824 168.324C453.876 167.035 453.902 165.473 453.902 163.637C453.902 163.025 453.896 161.983 453.883 160.512C453.87 159.04 453.863 157.751 453.863 156.645C453.121 156.189 451.871 155.922 450.113 155.844C450.061 155.635 450.035 155.473 450.035 155.355C450.035 155.277 450.061 155.134 450.113 154.926ZM466.285 142.914C468.772 142.68 470.973 142.146 472.887 141.312C473.251 141.469 473.479 141.645 473.57 141.84V156.195C475.589 154.229 477.626 153.246 479.684 153.246C481.689 153.246 483.323 153.995 484.586 155.492C485.849 156.977 486.48 158.988 486.48 161.527C486.48 162.478 486.376 163.415 486.168 164.34C485.96 165.251 485.615 166.15 485.133 167.035C484.651 167.908 484.059 168.676 483.355 169.34C482.652 170.004 481.76 170.544 480.68 170.961C479.599 171.365 478.401 171.566 477.086 171.566C475.797 171.566 474.54 171.352 473.316 170.922C472.092 170.492 471.005 169.88 470.055 169.086C470.081 167.797 470.094 164.659 470.094 159.672C470.094 157.602 470.087 154.783 470.074 151.215C470.061 147.647 470.055 145.453 470.055 144.633C469.326 144.203 468.069 143.936 466.285 143.832C466.233 143.624 466.207 143.467 466.207 143.363C466.207 143.272 466.233 143.122 466.285 142.914ZM477.809 155.805C476.936 155.805 476.174 155.967 475.523 156.293C474.885 156.605 474.234 157.081 473.57 157.719C473.57 161.938 473.596 165.349 473.648 167.953C474.547 169.503 475.921 170.277 477.77 170.277C478.16 170.277 478.551 170.212 478.941 170.082C479.345 169.952 479.768 169.704 480.211 169.34C480.654 168.975 481.038 168.513 481.363 167.953C481.702 167.393 481.982 166.638 482.203 165.688C482.424 164.737 482.535 163.656 482.535 162.445C482.535 161.195 482.372 160.082 482.047 159.105C481.721 158.129 481.194 157.335 480.465 156.723C479.736 156.111 478.85 155.805 477.809 155.805ZM487.574 153.676C489.293 153.754 491.031 153.793 492.789 153.793C494.391 153.793 496.031 153.754 497.711 153.676C497.763 153.884 497.789 154.047 497.789 154.164C497.789 154.242 497.763 154.385 497.711 154.594C497.32 154.62 497.008 154.652 496.773 154.691C496.539 154.717 496.233 154.77 495.855 154.848C495.491 154.926 495.211 155.043 495.016 155.199C494.833 155.355 494.742 155.544 494.742 155.766C494.742 155.883 494.794 156.124 494.898 156.488L498.863 166.352H498.98L502.75 156.488C502.88 156.163 502.945 155.883 502.945 155.648C502.945 155.049 502.197 154.698 500.699 154.594C500.647 154.385 500.621 154.242 500.621 154.164C500.621 154.047 500.647 153.884 500.699 153.676C502.223 153.754 503.173 153.793 503.551 153.793C504.645 153.793 506.031 153.754 507.711 153.676C507.763 153.832 507.789 153.969 507.789 154.086C507.789 154.164 507.763 154.333 507.711 154.594C506.083 154.659 505.029 155.29 504.547 156.488L498.512 170.922H498.551L496.383 176.605C495.576 178.715 494.82 180.141 494.117 180.883C493.427 181.625 492.542 181.996 491.461 181.996C490.589 181.996 489.859 181.736 489.273 181.215C488.701 180.694 488.414 180.01 488.414 179.164C488.414 178.396 488.629 177.79 489.059 177.348C489.488 176.905 490.022 176.684 490.66 176.684C491.246 176.684 491.695 176.859 492.008 177.211C492.333 177.562 492.496 177.96 492.496 178.402C492.496 179.027 492.216 179.522 491.656 179.887C491.721 180.173 491.936 180.316 492.301 180.316C492.717 180.316 493.108 180.076 493.473 179.594C493.837 179.125 494.312 178.116 494.898 176.566L497.066 171L490.973 156.488C490.829 156.163 490.628 155.883 490.367 155.648C490.107 155.401 489.788 155.212 489.41 155.082C489.046 154.939 488.74 154.841 488.492 154.789C488.245 154.724 487.939 154.659 487.574 154.594C487.522 154.49 487.496 154.346 487.496 154.164C487.496 153.969 487.522 153.806 487.574 153.676Z" fill="#0812F7"/>
<path d="M125.6 38.225C126.405 36.1232 126.857 33.825 126.857 31.4286C126.857 21.0179 118.411 12.5714 108 12.5714C104.13 12.5714 100.516 13.75 97.5304 15.7536C92.0893 6.325 81.9339 0 70.2857 0C52.9214 0 38.8571 14.0643 38.8571 31.4286C38.8571 31.9589 38.8768 32.4893 38.8964 33.0196C27.8964 36.8893 20 47.3786 20 59.7143C20 75.3304 32.6696 88 48.2857 88H120.571C134.459 88 145.714 76.7446 145.714 62.8571C145.714 50.6982 137.071 40.5429 125.6 38.225Z" fill="#FE0000"/>
<path d="M172.25 19.9688C172.25 13.8395 167.286 8.875 161.156 8.875C155.027 8.875 150.062 13.8395 150.062 19.9688C150.062 25.0164 153.432 29.2736 158.036 30.6188C157.953 32.8514 157.454 34.5709 156.511 35.7357C154.375 38.3982 149.674 38.842 144.696 39.2996C140.785 39.6602 136.736 40.0484 133.422 41.6432V21.6744C137.929 20.26 141.188 16.0582 141.188 11.0938C141.188 4.96445 136.223 0 130.094 0C123.964 0 119 4.96445 119 11.0938C119 16.0582 122.259 20.26 126.766 21.6744V49.3117C122.259 50.74 119 54.9418 119 59.9062C119 66.0355 123.964 71 130.094 71C136.223 71 141.188 66.0355 141.188 59.9062C141.188 55.1914 138.248 51.1561 134.088 49.5613C134.517 48.8402 135.169 48.2023 136.154 47.7031C138.4 46.566 141.756 46.2609 145.32 45.9281C151.172 45.3873 157.8 44.7633 161.711 39.9098C163.652 37.4969 164.637 34.3906 164.706 30.4939C169.088 28.9963 172.25 24.85 172.25 19.9688ZM130.094 8.875C131.314 8.875 132.312 9.87344 132.312 11.0938C132.312 12.3141 131.314 13.3125 130.094 13.3125C128.873 13.3125 127.875 12.3141 127.875 11.0938C127.875 9.87344 128.873 8.875 130.094 8.875ZM130.094 62.125C128.873 62.125 127.875 61.1266 127.875 59.9062C127.875 58.6859 128.873 57.6875 130.094 57.6875C131.314 57.6875 132.312 58.6859 132.312 59.9062C132.312 61.1266 131.314 62.125 130.094 62.125ZM161.156 17.75C162.377 17.75 163.375 18.7484 163.375 19.9688C163.375 21.1891 162.377 22.1875 161.156 22.1875C159.936 22.1875 158.938 21.1891 158.938 19.9688C158.938 18.7484 159.936 17.75 161.156 17.75Z" fill="black"/>
</svg>
